# Blender 4.4.3
# www.blender.org
mtllib head.mtl
o Sphere
v 0.000000 0.809523 1.591377
v 0.000000 0.802470 1.343312
v 0.000000 0.763487 0.349541
v 0.157936 0.793968 1.591241
v 0.156288 0.787078 1.343178
v 0.153766 0.775860 0.908417
v 0.148089 0.748901 0.349419
v 0.132426 0.671661 -0.140046
v 0.107131 0.545750 -0.542823
v 0.074600 0.383100 -0.826957
v 0.038060 0.199912 -0.971076
v 0.309803 0.747901 1.590839
v 0.306570 0.741492 1.342779
v 0.301622 0.731008 0.908032
v 0.290485 0.705701 0.349058
v 0.259760 0.633030 -0.140370
v 0.210143 0.514499 -0.543080
v 0.146333 0.361340 -0.827140
v 0.074658 0.188811 -0.971174
v 0.449764 0.673093 1.590184
v 0.445071 0.667464 1.342133
v 0.437885 0.658172 0.907406
v 0.421714 0.635551 0.348471
v 0.377109 0.570298 -0.140895
v 0.305077 0.463750 -0.543498
v 0.212442 0.326003 -0.827437
v 0.108386 0.170783 -0.971331
v 0.572441 0.572419 1.589304
v 0.566468 0.567840 1.341263
v 0.557319 0.560153 0.906563
v 0.536732 0.541147 0.347683
v 0.479959 0.485877 -0.141602
v 0.388283 0.395455 -0.544059
v 0.270385 0.278449 -0.827838
v 0.137950 0.146522 -0.971543
v 0.673119 0.449746 1.588231
v 0.666095 0.446447 1.340203
v 0.655333 0.440718 0.905536
v 0.631118 0.426119 0.346721
v 0.564360 0.383015 -0.142463
v 0.456563 0.312241 -0.544744
v 0.317937 0.220504 -0.828326
v 0.162212 0.116960 -0.971802
v 0.747930 0.309791 1.587007
v 0.740125 0.307952 1.338993
v 0.728161 0.304458 0.904365
v 0.701246 0.294890 0.345625
v 0.627067 0.265666 -0.143445
v 0.507294 0.217307 -0.545525
v 0.353269 0.154397 -0.828882
v 0.180240 0.083233 -0.972097
v 0.793998 0.157930 1.585679
v 0.785712 0.157675 1.337681
v 0.773004 0.156609 0.903093
v 0.744421 0.152504 0.344434
v 0.665673 0.138341 -0.144511
v 0.538527 0.114302 -0.546373
v 0.375025 0.082668 -0.829486
v 0.191342 0.046637 -0.972417
v 0.809553 -0.000000 1.584297
v 0.801104 0.001394 1.336316
v 0.788141 0.002855 0.901771
v 0.758987 0.004435 0.343197
v 0.678695 0.005936 -0.145620
v 0.549063 0.007187 -0.547254
v 0.382368 0.008073 -0.830114
v 0.195090 0.008578 -0.972750
v 0.793998 -0.157930 1.582916
v 0.785710 -0.154888 1.334951
v 0.772990 -0.150896 0.900450
v 0.744386 -0.143627 0.341960
v 0.665635 -0.126462 -0.146728
v 0.538499 -0.099924 -0.548136
v 0.375017 -0.066519 -0.830741
v 0.191342 -0.029481 -0.973083
v 0.747930 -0.309791 1.581588
v 0.740122 -0.305163 1.333638
v 0.728134 -0.298736 0.899179
v 0.701180 -0.285992 0.340770
v 0.626997 -0.253765 -0.147794
v 0.507242 -0.202912 -0.548983
v 0.353255 -0.138244 -0.831345
v 0.180240 -0.066077 -0.973403
v 0.673119 -0.449747 1.580364
v 0.666092 -0.443658 1.332429
v 0.655297 -0.434984 0.898007
v 0.631032 -0.417191 0.339674
v 0.564268 -0.371082 -0.148776
v 0.456495 -0.297822 -0.549763
v 0.317918 -0.204345 -0.831900
v 0.162212 -0.099804 -0.973698
v 0.572440 -0.572419 1.579291
v 0.566464 -0.565049 1.331368
v 0.557280 -0.554404 0.896980
v 0.536638 -0.532183 0.338713
v 0.479860 -0.473906 -0.149636
v 0.388209 -0.381008 -0.550448
v 0.270365 -0.262282 -0.832387
v 0.137950 -0.129367 -0.973956
v 0.449763 -0.673093 1.578410
v 0.445068 -0.664672 1.330498
v 0.437850 -0.652408 0.896138
v 0.421628 -0.626551 0.337924
v 0.377016 -0.558288 -0.150343
v 0.305009 -0.449275 -0.551009
v 0.212423 -0.309828 -0.832787
v 0.108386 -0.153628 -0.974169
v 0.309802 -0.747901 1.577756
v 0.306568 -0.738699 1.329852
v 0.301595 -0.725231 0.895512
v 0.290419 -0.696672 0.337338
v 0.259690 -0.620988 -0.150867
v 0.210091 -0.500000 -0.551426
v 0.146319 -0.345158 -0.833084
v 0.074658 -0.171655 -0.974326
v 0.157936 -0.793967 1.577353
v 0.156287 -0.784284 1.329454
v 0.153751 -0.770075 0.895126
v 0.148053 -0.739851 0.336978
v 0.132388 -0.659597 -0.151191
v 0.107103 -0.531235 -0.551683
v 0.074592 -0.366914 -0.833267
v 0.038060 -0.182756 -0.974423
v -0.000000 -0.809522 1.577217
v -0.000000 -0.799676 1.329319
v 0.000000 -0.785217 0.894996
v -0.000000 -0.754430 0.336856
v -0.000000 -0.672634 -0.151300
v -0.000000 -0.541782 -0.551770
v -0.000000 -0.374260 -0.833328
v -0.000000 -0.186505 -0.974456
v -0.157936 -0.793967 1.577353
v -0.156287 -0.784284 1.329454
v -0.153751 -0.770075 0.895126
v -0.148053 -0.739851 0.336978
v -0.132388 -0.659597 -0.151191
v -0.107103 -0.531235 -0.551683
v -0.074593 -0.366914 -0.833267
v -0.038060 -0.182756 -0.974423
v -0.309803 -0.747901 1.577756
v -0.306568 -0.738699 1.329852
v -0.301595 -0.725231 0.895512
v -0.290419 -0.696671 0.337339
v -0.259690 -0.620988 -0.150868
v -0.210091 -0.500000 -0.551426
v -0.146319 -0.345158 -0.833084
v -0.074658 -0.171655 -0.974326
v -0.449764 -0.673093 1.578410
v -0.445068 -0.664672 1.330498
v -0.437850 -0.652408 0.896138
v -0.421628 -0.626551 0.337924
v -0.377016 -0.558288 -0.150343
v -0.305009 -0.449275 -0.551009
v -0.212423 -0.309828 -0.832787
v -0.108386 -0.153628 -0.974169
v -0.572441 -0.572418 1.579291
v -0.566464 -0.565049 1.331368
v -0.557280 -0.554404 0.896980
v -0.536638 -0.532183 0.338713
v -0.479860 -0.473906 -0.149636
v -0.388209 -0.381008 -0.550448
v -0.270365 -0.262282 -0.832387
v -0.137950 -0.129367 -0.973956
v 0.000000 0.008746 -0.999962
v -0.673119 -0.449746 1.580364
v -0.666092 -0.443658 1.332429
v -0.655297 -0.434984 0.898007
v -0.631032 -0.417191 0.339674
v -0.564268 -0.371082 -0.148775
v -0.456495 -0.297822 -0.549763
v -0.317918 -0.204345 -0.831900
v -0.162212 -0.099804 -0.973698
v -0.747929 -0.309790 1.581588
v -0.740122 -0.305163 1.333638
v -0.728133 -0.298736 0.899179
v -0.701180 -0.285992 0.340770
v -0.626997 -0.253765 -0.147793
v -0.507242 -0.202912 -0.548982
v -0.353255 -0.138244 -0.831344
v -0.180240 -0.066077 -0.973403
v -0.793997 -0.157930 1.582916
v -0.785710 -0.154888 1.334951
v -0.772989 -0.150896 0.900450
v -0.744385 -0.143626 0.341960
v -0.665634 -0.126462 -0.146728
v -0.538498 -0.099923 -0.548135
v -0.375017 -0.066519 -0.830741
v -0.191342 -0.029481 -0.973083
v -0.809553 0.000000 1.584297
v -0.801104 0.001394 1.336316
v -0.788141 0.002855 0.901771
v -0.758987 0.004436 0.343197
v -0.678694 0.005936 -0.145619
v -0.549062 0.007187 -0.547254
v -0.382368 0.008073 -0.830114
v -0.195090 0.008578 -0.972750
v -0.793997 0.157930 1.585679
v -0.785711 0.157676 1.337681
v -0.773004 0.156609 0.903093
v -0.744421 0.152505 0.344435
v -0.665673 0.138341 -0.144511
v -0.538526 0.114303 -0.546373
v -0.375025 0.082668 -0.829486
v -0.191342 0.046637 -0.972417
v -0.747929 0.309791 1.587007
v -0.740124 0.307952 1.338993
v -0.728161 0.304458 0.904365
v -0.701245 0.294890 0.345625
v -0.627067 0.265666 -0.143445
v -0.507293 0.217307 -0.545525
v -0.353269 0.154397 -0.828882
v -0.180240 0.083233 -0.972097
v -0.673118 0.449746 1.588231
v -0.666095 0.446447 1.340203
v -0.655333 0.440718 0.905536
v -0.631118 0.426119 0.346721
v -0.564360 0.383015 -0.142462
v -0.456562 0.312241 -0.544744
v -0.317937 0.220504 -0.828326
v -0.162211 0.116960 -0.971802
v -0.572440 0.572419 1.589304
v -0.566467 0.567840 1.341263
v -0.557319 0.560153 0.906563
v -0.536731 0.541147 0.347683
v -0.479959 0.485877 -0.141601
v -0.388282 0.395455 -0.544059
v -0.270385 0.278449 -0.827838
v -0.137950 0.146522 -0.971543
v -0.449763 0.673093 1.590184
v -0.445070 0.667464 1.342133
v -0.437885 0.658172 0.907406
v -0.421713 0.635551 0.348472
v -0.377108 0.570298 -0.140894
v -0.305076 0.463749 -0.543497
v -0.212442 0.326003 -0.827437
v -0.108386 0.170783 -0.971331
v -0.309802 0.747901 1.590839
v -0.306570 0.741491 1.342780
v -0.301622 0.731007 0.908032
v -0.290484 0.705701 0.349058
v -0.259760 0.633030 -0.140369
v -0.210143 0.514498 -0.543080
v -0.146333 0.361340 -0.827140
v -0.074658 0.188811 -0.971174
v -0.157935 0.793967 1.591241
v -0.156288 0.787077 1.343178
v -0.153766 0.775859 0.908418
v -0.148089 0.748900 0.349419
v -0.132426 0.671661 -0.140046
v -0.107131 0.545750 -0.542822
v -0.074600 0.383100 -0.826956
v -0.038060 0.199912 -0.971076
v 0.000000 0.791004 0.908548
v 0.000000 0.684705 -0.139937
v 0.000000 0.556302 -0.542736
v 0.000000 0.390447 -0.826895
v 0.000000 0.203660 -0.971044
vn -0.0000 0.9996 -0.0284
vn -0.0000 0.9996 -0.0274
vn -0.0000 0.9946 -0.1038
vn 0.1949 0.9804 -0.0285
vn 0.1950 0.9804 -0.0275
vn 0.1949 0.9801 -0.0378
vn 0.1939 0.9755 -0.1039
vn 0.1895 0.9543 -0.2309
vn 0.1779 0.8974 -0.4039
vn 0.1465 0.7420 -0.6542
vn 0.0774 0.3971 -0.9145
vn 0.3824 0.9236 -0.0288
vn 0.3824 0.9236 -0.0277
vn 0.3823 0.9233 -0.0380
vn 0.3803 0.9190 -0.1040
vn 0.3717 0.8991 -0.2311
vn 0.3489 0.8456 -0.4041
vn 0.2874 0.6993 -0.6545
vn 0.1519 0.3746 -0.9147
vn 0.5551 0.8313 -0.0294
vn 0.5552 0.8312 -0.0282
vn 0.5550 0.8310 -0.0383
vn 0.5522 0.8272 -0.1043
vn 0.5397 0.8095 -0.2314
vn 0.5066 0.7614 -0.4044
vn 0.4174 0.6301 -0.6548
vn 0.2206 0.3380 -0.9149
vn 0.7065 0.7070 -0.0301
vn 0.7066 0.7070 -0.0287
vn 0.7064 0.7067 -0.0387
vn 0.7028 0.7036 -0.1047
vn 0.6869 0.6887 -0.2319
vn 0.6450 0.6482 -0.4048
vn 0.5314 0.5368 -0.6553
vn 0.2809 0.2887 -0.9153
vn 0.8308 0.5556 -0.0309
vn 0.8310 0.5556 -0.0294
vn 0.8307 0.5554 -0.0392
vn 0.8265 0.5530 -0.1052
vn 0.8079 0.5416 -0.2324
vn 0.7586 0.5101 -0.4054
vn 0.6251 0.4231 -0.6559
vn 0.3304 0.2286 -0.9157
vn 0.9232 0.3829 -0.0319
vn 0.9233 0.3828 -0.0302
vn 0.9230 0.3826 -0.0397
vn 0.9184 0.3812 -0.1057
vn 0.8978 0.3737 -0.2329
vn 0.8432 0.3525 -0.4060
vn 0.6949 0.2932 -0.6566
vn 0.3673 0.1600 -0.9163
vn 0.9802 0.1955 -0.0330
vn 0.9802 0.1953 -0.0311
vn 0.9799 0.1952 -0.0403
vn 0.9751 0.1947 -0.1063
vn 0.9533 0.1914 -0.2336
vn 0.8954 0.1813 -0.4067
vn 0.7381 0.1522 -0.6573
vn 0.3901 0.0854 -0.9168
vn 0.9994 0.0005 -0.0341
vn 0.9995 0.0003 -0.0319
vn 0.9992 0.0003 -0.0409
vn 0.9943 0.0008 -0.1069
vn 0.9722 0.0018 -0.2342
vn 0.9133 0.0032 -0.4074
vn 0.7529 0.0054 -0.6581
vn 0.3979 0.0078 -0.9174
vn 0.9803 -0.1945 -0.0351
vn 0.9803 -0.1947 -0.0328
vn 0.9800 -0.1946 -0.0416
vn 0.9752 -0.1932 -0.1075
vn 0.9537 -0.1879 -0.2349
vn 0.8960 -0.1750 -0.4081
vn 0.7388 -0.1415 -0.6589
vn 0.3904 -0.0698 -0.9180
vn 0.9234 -0.3820 -0.0362
vn 0.9235 -0.3822 -0.0337
vn 0.9232 -0.3821 -0.0422
vn 0.9187 -0.3798 -0.1081
vn 0.8985 -0.3704 -0.2355
vn 0.8443 -0.3465 -0.4087
vn 0.6963 -0.2830 -0.6596
vn 0.3680 -0.1446 -0.9185
vn 0.8311 -0.5548 -0.0372
vn 0.8311 -0.5550 -0.0345
vn 0.8309 -0.5549 -0.0427
vn 0.8269 -0.5518 -0.1086
vn 0.8088 -0.5386 -0.2361
vn 0.7601 -0.5047 -0.4094
vn 0.6269 -0.4135 -0.6603
vn 0.3313 -0.2135 -0.9191
vn 0.7068 -0.7063 -0.0380
vn 0.7068 -0.7065 -0.0352
vn 0.7066 -0.7063 -0.0432
vn 0.7033 -0.7025 -0.1091
vn 0.6879 -0.6861 -0.2366
vn 0.6466 -0.6434 -0.4099
vn 0.5333 -0.5279 -0.6609
vn 0.2819 -0.2740 -0.9195
vn 0.5554 -0.8307 -0.0387
vn 0.5554 -0.8308 -0.0357
vn 0.5552 -0.8306 -0.0436
vn 0.5526 -0.8262 -0.1095
vn 0.5406 -0.8072 -0.2370
vn 0.5081 -0.7572 -0.4103
vn 0.4192 -0.6219 -0.6614
vn 0.2215 -0.3237 -0.9199
vn 0.3826 -0.9231 -0.0393
vn 0.3826 -0.9232 -0.0361
vn 0.3824 -0.9229 -0.0439
vn 0.3806 -0.9182 -0.1098
vn 0.3724 -0.8972 -0.2373
vn 0.3501 -0.8419 -0.4107
vn 0.2888 -0.6918 -0.6618
vn 0.1526 -0.3606 -0.9201
vn 0.1950 -0.9800 -0.0396
vn 0.1950 -0.9801 -0.0364
vn 0.1950 -0.9798 -0.0441
vn 0.1941 -0.9748 -0.1099
vn 0.1899 -0.9527 -0.2375
vn 0.1785 -0.8940 -0.4109
vn 0.1473 -0.7349 -0.6620
vn 0.0778 -0.3834 -0.9203
vn -0.0000 -0.9992 -0.0397
vn -0.0000 -0.9993 -0.0365
vn -0.0000 -0.9990 -0.0442
vn -0.0000 -0.9939 -0.1100
vn -0.0000 -0.9714 -0.2376
vn -0.0000 -0.9117 -0.4110
vn -0.0000 -0.7494 -0.6621
vn -0.0000 -0.3910 -0.9204
vn -0.1950 -0.9800 -0.0396
vn -0.1950 -0.9801 -0.0364
vn -0.1950 -0.9798 -0.0441
vn -0.1941 -0.9748 -0.1099
vn -0.1899 -0.9527 -0.2375
vn -0.1785 -0.8940 -0.4109
vn -0.1473 -0.7349 -0.6620
vn -0.0778 -0.3834 -0.9203
vn -0.3826 -0.9231 -0.0393
vn -0.3826 -0.9232 -0.0361
vn -0.3824 -0.9229 -0.0439
vn -0.3806 -0.9182 -0.1098
vn -0.3724 -0.8972 -0.2373
vn -0.3501 -0.8419 -0.4107
vn -0.2888 -0.6918 -0.6618
vn -0.1526 -0.3606 -0.9201
vn -0.5554 -0.8307 -0.0387
vn -0.5554 -0.8308 -0.0357
vn -0.5552 -0.8306 -0.0436
vn -0.5526 -0.8262 -0.1095
vn -0.5406 -0.8072 -0.2370
vn -0.5081 -0.7572 -0.4103
vn -0.4192 -0.6219 -0.6614
vn -0.2215 -0.3237 -0.9199
vn -0.7068 -0.7063 -0.0380
vn -0.7068 -0.7065 -0.0352
vn -0.7066 -0.7063 -0.0432
vn -0.7033 -0.7025 -0.1091
vn -0.6879 -0.6861 -0.2366
vn -0.6466 -0.6434 -0.4099
vn -0.5334 -0.5279 -0.6609
vn -0.2819 -0.2740 -0.9195
vn -0.0000 0.0087 -1.0000
vn -0.8311 -0.5548 -0.0372
vn -0.8311 -0.5550 -0.0345
vn -0.8309 -0.5549 -0.0427
vn -0.8269 -0.5518 -0.1086
vn -0.8088 -0.5386 -0.2361
vn -0.7601 -0.5047 -0.4094
vn -0.6269 -0.4135 -0.6603
vn -0.3313 -0.2135 -0.9191
vn -0.9234 -0.3820 -0.0362
vn -0.9235 -0.3822 -0.0337
vn -0.9232 -0.3821 -0.0422
vn -0.9187 -0.3798 -0.1081
vn -0.8985 -0.3704 -0.2355
vn -0.8443 -0.3465 -0.4087
vn -0.6963 -0.2830 -0.6596
vn -0.3680 -0.1446 -0.9185
vn -0.9803 -0.1945 -0.0351
vn -0.9803 -0.1947 -0.0328
vn -0.9800 -0.1946 -0.0416
vn -0.9752 -0.1932 -0.1075
vn -0.9537 -0.1879 -0.2349
vn -0.8960 -0.1750 -0.4081
vn -0.7388 -0.1415 -0.6589
vn -0.3904 -0.0698 -0.9180
vn -0.9994 0.0005 -0.0340
vn -0.9995 0.0003 -0.0319
vn -0.9992 0.0003 -0.0409
vn -0.9943 0.0008 -0.1069
vn -0.9722 0.0018 -0.2342
vn -0.9133 0.0032 -0.4074
vn -0.7529 0.0054 -0.6581
vn -0.3979 0.0078 -0.9174
vn -0.9802 0.1955 -0.0329
vn -0.9802 0.1953 -0.0311
vn -0.9799 0.1952 -0.0403
vn -0.9751 0.1947 -0.1063
vn -0.9533 0.1914 -0.2336
vn -0.8954 0.1813 -0.4067
vn -0.7381 0.1522 -0.6573
vn -0.3901 0.0854 -0.9168
vn -0.9232 0.3829 -0.0319
vn -0.9233 0.3828 -0.0302
vn -0.9230 0.3826 -0.0397
vn -0.9184 0.3812 -0.1057
vn -0.8978 0.3737 -0.2329
vn -0.8432 0.3525 -0.4060
vn -0.6949 0.2932 -0.6566
vn -0.3673 0.1600 -0.9163
vn -0.8308 0.5556 -0.0309
vn -0.8310 0.5556 -0.0294
vn -0.8307 0.5554 -0.0392
vn -0.8265 0.5530 -0.1052
vn -0.8079 0.5416 -0.2324
vn -0.7586 0.5101 -0.4054
vn -0.6251 0.4231 -0.6559
vn -0.3304 0.2286 -0.9157
vn -0.7065 0.7070 -0.0301
vn -0.7066 0.7070 -0.0287
vn -0.7064 0.7067 -0.0387
vn -0.7028 0.7036 -0.1047
vn -0.6869 0.6887 -0.2319
vn -0.6450 0.6482 -0.4048
vn -0.5314 0.5368 -0.6553
vn -0.2809 0.2887 -0.9153
vn -0.5551 0.8313 -0.0294
vn -0.5552 0.8312 -0.0282
vn -0.5550 0.8310 -0.0383
vn -0.5522 0.8272 -0.1043
vn -0.5397 0.8095 -0.2314
vn -0.5066 0.7614 -0.4044
vn -0.4174 0.6301 -0.6548
vn -0.2206 0.3380 -0.9149
vn -0.3824 0.9236 -0.0288
vn -0.3824 0.9236 -0.0277
vn -0.3823 0.9233 -0.0380
vn -0.3803 0.9190 -0.1040
vn -0.3717 0.8991 -0.2311
vn -0.3489 0.8456 -0.4041
vn -0.2874 0.6993 -0.6545
vn -0.1519 0.3746 -0.9147
vn -0.1949 0.9804 -0.0285
vn -0.1950 0.9804 -0.0275
vn -0.1949 0.9801 -0.0378
vn -0.1939 0.9755 -0.1039
vn -0.1895 0.9543 -0.2309
vn -0.1779 0.8974 -0.4039
vn -0.1465 0.7420 -0.6542
vn -0.0774 0.3971 -0.9145
vn -0.0000 0.9993 -0.0377
vn -0.0000 0.9730 -0.2309
vn -0.0000 0.9149 -0.4038
vn -0.0000 0.7564 -0.6542
vn -0.0000 0.4047 -0.9144
vt 0.734375 -0.000593
vt 0.750000 0.124190
vt 0.718750 0.124190
vt 0.750000 0.872888
vt 0.750000 0.997671
vt 0.718750 0.997671
vt 0.718750 0.872888
vt 0.750000 0.748105
vt 0.718750 0.748105
vt 0.750000 0.623322
vt 0.718750 0.623322
vt 0.750000 0.498539
vt 0.718750 0.498539
vt 0.750000 0.373756
vt 0.718750 0.373756
vt 0.750000 0.248973
vt 0.718750 0.248973
vt 0.687500 0.248973
vt 0.687500 0.124190
vt 0.703125 -0.000593
vt 0.687500 0.997671
vt 0.687500 0.872888
vt 0.687500 0.748105
vt 0.687500 0.623322
vt 0.687500 0.498539
vt 0.687500 0.373756
vt 0.656250 0.623322
vt 0.656250 0.498539
vt 0.656250 0.373756
vt 0.656250 0.248973
vt 0.656250 0.124190
vt 0.671875 -0.000593
vt 0.656250 0.997671
vt 0.656250 0.872888
vt 0.656250 0.748105
vt 0.640625 -0.000593
vt 0.625000 0.124190
vt 0.625000 0.997671
vt 0.625000 0.872888
vt 0.625000 0.748105
vt 0.625000 0.623322
vt 0.625000 0.498539
vt 0.625000 0.373756
vt 0.625000 0.248973
vt 0.593750 0.623322
vt 0.593750 0.498539
vt 0.593750 0.373756
vt 0.593750 0.248973
vt 0.593750 0.124190
vt 0.609375 -0.000593
vt 0.593750 0.997671
vt 0.593750 0.872888
vt 0.593750 0.748105
vt 0.578125 -0.000593
vt 0.562500 0.124190
vt 0.562500 0.997671
vt 0.562500 0.872888
vt 0.562500 0.748105
vt 0.562500 0.623322
vt 0.562500 0.498539
vt 0.562500 0.373756
vt 0.562500 0.248973
vt 0.531250 0.498539
vt 0.531250 0.373756
vt 0.531250 0.248973
vt 0.531250 0.124190
vt 0.546875 -0.000593
vt 0.531250 0.997671
vt 0.531250 0.872888
vt 0.531250 0.748105
vt 0.531250 0.623322
vt 0.500000 0.872888
vt 0.500000 0.748105
vt 0.500000 0.623322
vt 0.500000 0.498539
vt 0.500000 0.373756
vt 0.500000 0.248973
vt 0.500000 0.124190
vt 0.515625 -0.000593
vt 0.500000 0.997671
vt 0.468750 0.373756
vt 0.468750 0.248973
vt 0.468750 0.124190
vt 0.484375 -0.000593
vt 0.468750 0.997671
vt 0.468750 0.872888
vt 0.468750 0.748105
vt 0.468750 0.623322
vt 0.468750 0.498539
vt 0.437500 0.872888
vt 0.437500 0.748105
vt 0.437500 0.623322
vt 0.437500 0.498539
vt 0.437500 0.373756
vt 0.437500 0.248973
vt 0.437500 0.124190
vt 0.453125 -0.000593
vt 0.437500 0.997671
vt 0.406250 0.373756
vt 0.406250 0.248973
vt 0.406250 0.124190
vt 0.421875 -0.000593
vt 0.406250 0.997671
vt 0.406250 0.872888
vt 0.406250 0.748105
vt 0.406250 0.623322
vt 0.406250 0.498539
vt 0.375000 0.748105
vt 0.375000 0.623322
vt 0.375000 0.498539
vt 0.375000 0.373756
vt 0.375000 0.248973
vt 0.375000 0.124190
vt 0.390625 -0.000593
vt 0.375000 0.997671
vt 0.375000 0.872888
vt 0.343750 0.248973
vt 0.343750 0.124190
vt 0.359375 -0.000593
vt 0.343750 0.997671
vt 0.343750 0.872888
vt 0.343750 0.748105
vt 0.343750 0.623322
vt 0.343750 0.498539
vt 0.343750 0.373756
vt 0.312500 0.748105
vt 0.312500 0.623322
vt 0.312500 0.498539
vt 0.312500 0.373756
vt 0.312500 0.248973
vt 0.312500 0.124190
vt 0.328125 -0.000593
vt 0.312500 0.997671
vt 0.312500 0.872888
vt 0.281250 0.248973
vt 0.281250 0.124190
vt 0.296875 -0.000593
vt 0.281250 0.997671
vt 0.281250 0.872888
vt 0.281250 0.748105
vt 0.281250 0.623322
vt 0.281250 0.498539
vt 0.281250 0.373756
vt 0.250000 0.623322
vt 0.250000 0.498539
vt 0.250000 0.373756
vt 0.250000 0.248973
vt 0.250000 0.124190
vt 0.265625 -0.000593
vt 0.250000 0.997671
vt 0.250000 0.872888
vt 0.250000 0.748105
vt 0.234375 -0.000593
vt 0.218750 0.124190
vt 0.218750 0.997671
vt 0.218750 0.872888
vt 0.218750 0.748105
vt 0.218750 0.623322
vt 0.218750 0.498539
vt 0.218750 0.373756
vt 0.218750 0.248973
vt 0.187500 0.498539
vt 0.187500 0.373756
vt 0.187500 0.248973
vt 0.187500 0.124190
vt 0.203125 -0.000593
vt 0.187500 0.997671
vt 0.187500 0.872888
vt 0.187500 0.748105
vt 0.187500 0.623322
vt 0.156250 0.997671
vt 0.156250 0.872888
vt 0.156250 0.748105
vt 0.156250 0.623322
vt 0.156250 0.498539
vt 0.156250 0.373756
vt 0.156250 0.248973
vt 0.156250 0.124190
vt 0.171875 -0.000593
vt 0.125000 0.498539
vt 0.125000 0.373756
vt 0.125000 0.248973
vt 0.125000 0.124190
vt 0.140625 -0.000593
vt 0.125000 0.997671
vt 0.125000 0.872888
vt 0.125000 0.748105
vt 0.125000 0.623322
vt 0.093750 0.872888
vt 0.093750 0.748105
vt 0.093750 0.623322
vt 0.093750 0.498539
vt 0.093750 0.373756
vt 0.093750 0.248973
vt 0.093750 0.124190
vt 0.109375 -0.000593
vt 0.093750 0.997671
vt 0.062500 0.373756
vt 0.062500 0.248973
vt 0.062500 0.124190
vt 0.078125 -0.000593
vt 0.062500 0.997671
vt 0.062500 0.872888
vt 0.062500 0.748105
vt 0.062500 0.623322
vt 0.062500 0.498539
vt 0.031250 0.872888
vt 0.031250 0.748105
vt 0.031250 0.623322
vt 0.031250 0.498539
vt 0.031250 0.373756
vt 0.031250 0.248973
vt 0.031250 0.124190
vt 0.046875 -0.000593
vt 0.031250 0.997671
vt 0.000000 0.373756
vt 0.000000 0.248973
vt 0.000000 0.124190
vt 0.015625 -0.000593
vt 0.000000 0.997671
vt 0.000000 0.872888
vt 0.000000 0.748105
vt 0.000000 0.623322
vt 0.000000 0.498539
vt 1.000000 0.623322
vt 1.000000 0.748105
vt 0.968750 0.748105
vt 0.968750 0.623322
vt 1.000000 0.498539
vt 0.968750 0.498539
vt 1.000000 0.373756
vt 0.968750 0.373756
vt 1.000000 0.248973
vt 0.968750 0.248973
vt 1.000000 0.124190
vt 0.968750 0.124190
vt 0.984375 -0.000593
vt 1.000000 0.872888
vt 1.000000 0.997671
vt 0.968750 0.997671
vt 0.968750 0.872888
vt 0.937500 0.248973
vt 0.937500 0.124190
vt 0.953125 -0.000593
vt 0.937500 0.997671
vt 0.937500 0.872888
vt 0.937500 0.748105
vt 0.937500 0.623322
vt 0.937500 0.498539
vt 0.937500 0.373756
vt 0.906250 0.623322
vt 0.906250 0.498539
vt 0.906250 0.373756
vt 0.906250 0.248973
vt 0.906250 0.124190
vt 0.921875 -0.000593
vt 0.906250 0.997671
vt 0.906250 0.872888
vt 0.906250 0.748105
vt 0.890625 -0.000593
vt 0.875000 0.124190
vt 0.875000 0.997671
vt 0.875000 0.872888
vt 0.875000 0.748105
vt 0.875000 0.623322
vt 0.875000 0.498539
vt 0.875000 0.373756
vt 0.875000 0.248973
vt 0.843750 0.623322
vt 0.843750 0.498539
vt 0.843750 0.373756
vt 0.843750 0.248973
vt 0.843750 0.124190
vt 0.859375 -0.000593
vt 0.843750 0.997671
vt 0.843750 0.872888
vt 0.843750 0.748105
vt 0.828125 -0.000593
vt 0.812500 0.124190
vt 0.812500 0.997671
vt 0.812500 0.872888
vt 0.812500 0.748105
vt 0.812500 0.623322
vt 0.812500 0.498539
vt 0.812500 0.373756
vt 0.812500 0.248973
vt 0.781250 0.498539
vt 0.781250 0.373756
vt 0.781250 0.248973
vt 0.781250 0.124190
vt 0.796875 -0.000593
vt 0.781250 0.997671
vt 0.781250 0.872888
vt 0.781250 0.748105
vt 0.781250 0.623322
vt 0.765625 -0.000593
s 1
f 164/1/164 257/2/257 11/3/11
f 2/4/2 1/5/1 4/6/4 5/7/5
f 253/8/253 2/4/2 5/7/5 6/9/6
f 3/10/3 253/8/253 6/9/6 7/11/7
f 254/12/254 3/10/3 7/11/7 8/13/8
f 255/14/255 254/12/254 8/13/8 9/15/9
f 256/16/256 255/14/255 9/15/9 10/17/10
f 257/2/257 256/16/256 10/17/10 11/3/11
f 11/3/11 10/17/10 18/18/18 19/19/19
f 164/20/164 11/3/11 19/19/19
f 5/7/5 4/6/4 12/21/12 13/22/13
f 6/9/6 5/7/5 13/22/13 14/23/14
f 7/11/7 6/9/6 14/23/14 15/24/15
f 8/13/8 7/11/7 15/24/15 16/25/16
f 9/15/9 8/13/8 16/25/16 17/26/17
f 10/17/10 9/15/9 17/26/17 18/18/18
f 16/25/16 15/24/15 23/27/23 24/28/24
f 17/26/17 16/25/16 24/28/24 25/29/25
f 18/18/18 17/26/17 25/29/25 26/30/26
f 19/19/19 18/18/18 26/30/26 27/31/27
f 164/32/164 19/19/19 27/31/27
f 13/22/13 12/21/12 20/33/20 21/34/21
f 14/23/14 13/22/13 21/34/21 22/35/22
f 15/24/15 14/23/14 22/35/22 23/27/23
f 164/36/164 27/31/27 35/37/35
f 21/34/21 20/33/20 28/38/28 29/39/29
f 22/35/22 21/34/21 29/39/29 30/40/30
f 23/27/23 22/35/22 30/40/30 31/41/31
f 24/28/24 23/27/23 31/41/31 32/42/32
f 25/29/25 24/28/24 32/42/32 33/43/33
f 26/30/26 25/29/25 33/43/33 34/44/34
f 27/31/27 26/30/26 34/44/34 35/37/35
f 32/42/32 31/41/31 39/45/39 40/46/40
f 33/43/33 32/42/32 40/46/40 41/47/41
f 34/44/34 33/43/33 41/47/41 42/48/42
f 35/37/35 34/44/34 42/48/42 43/49/43
f 164/50/164 35/37/35 43/49/43
f 29/39/29 28/38/28 36/51/36 37/52/37
f 30/40/30 29/39/29 37/52/37 38/53/38
f 31/41/31 30/40/30 38/53/38 39/45/39
f 164/54/164 43/49/43 51/55/51
f 37/52/37 36/51/36 44/56/44 45/57/45
f 38/53/38 37/52/37 45/57/45 46/58/46
f 39/45/39 38/53/38 46/58/46 47/59/47
f 40/46/40 39/45/39 47/59/47 48/60/48
f 41/47/41 40/46/40 48/60/48 49/61/49
f 42/48/42 41/47/41 49/61/49 50/62/50
f 43/49/43 42/48/42 50/62/50 51/55/51
f 49/61/49 48/60/48 56/63/56 57/64/57
f 50/62/50 49/61/49 57/64/57 58/65/58
f 51/55/51 50/62/50 58/65/58 59/66/59
f 164/67/164 51/55/51 59/66/59
f 45/57/45 44/56/44 52/68/52 53/69/53
f 46/58/46 45/57/45 53/69/53 54/70/54
f 47/59/47 46/58/46 54/70/54 55/71/55
f 48/60/48 47/59/47 55/71/55 56/63/56
f 54/70/54 53/69/53 61/72/61 62/73/62
f 55/71/55 54/70/54 62/73/62 63/74/63
f 56/63/56 55/71/55 63/74/63 64/75/64
f 57/64/57 56/63/56 64/75/64 65/76/65
f 58/65/58 57/64/57 65/76/65 66/77/66
f 59/66/59 58/65/58 66/77/66 67/78/67
f 164/79/164 59/66/59 67/78/67
f 53/69/53 52/68/52 60/80/60 61/72/61
f 66/77/66 65/76/65 73/81/73 74/82/74
f 67/78/67 66/77/66 74/82/74 75/83/75
f 164/84/164 67/78/67 75/83/75
f 61/72/61 60/80/60 68/85/68 69/86/69
f 62/73/62 61/72/61 69/86/69 70/87/70
f 63/74/63 62/73/62 70/87/70 71/88/71
f 64/75/64 63/74/63 71/88/71 72/89/72
f 65/76/65 64/75/64 72/89/72 73/81/73
f 70/87/70 69/86/69 77/90/77 78/91/78
f 71/88/71 70/87/70 78/91/78 79/92/79
f 72/89/72 71/88/71 79/92/79 80/93/80
f 73/81/73 72/89/72 80/93/80 81/94/81
f 74/82/74 73/81/73 81/94/81 82/95/82
f 75/83/75 74/82/74 82/95/82 83/96/83
f 164/97/164 75/83/75 83/96/83
f 69/86/69 68/85/68 76/98/76 77/90/77
f 82/95/82 81/94/81 89/99/89 90/100/90
f 83/96/83 82/95/82 90/100/90 91/101/91
f 164/102/164 83/96/83 91/101/91
f 77/90/77 76/98/76 84/103/84 85/104/85
f 78/91/78 77/90/77 85/104/85 86/105/86
f 79/92/79 78/91/78 86/105/86 87/106/87
f 80/93/80 79/92/79 87/106/87 88/107/88
f 81/94/81 80/93/80 88/107/88 89/99/89
f 87/106/87 86/105/86 94/108/94 95/109/95
f 88/107/88 87/106/87 95/109/95 96/110/96
f 89/99/89 88/107/88 96/110/96 97/111/97
f 90/100/90 89/99/89 97/111/97 98/112/98
f 91/101/91 90/100/90 98/112/98 99/113/99
f 164/114/164 91/101/91 99/113/99
f 85/104/85 84/103/84 92/115/92 93/116/93
f 86/105/86 85/104/85 93/116/93 94/108/94
f 99/113/99 98/112/98 106/117/106 107/118/107
f 164/119/164 99/113/99 107/118/107
f 93/116/93 92/115/92 100/120/100 101/121/101
f 94/108/94 93/116/93 101/121/101 102/122/102
f 95/109/95 94/108/94 102/122/102 103/123/103
f 96/110/96 95/109/95 103/123/103 104/124/104
f 97/111/97 96/110/96 104/124/104 105/125/105
f 98/112/98 97/111/97 105/125/105 106/117/106
f 103/123/103 102/122/102 110/126/110 111/127/111
f 104/124/104 103/123/103 111/127/111 112/128/112
f 105/125/105 104/124/104 112/128/112 113/129/113
f 106/117/106 105/125/105 113/129/113 114/130/114
f 107/118/107 106/117/106 114/130/114 115/131/115
f 164/132/164 107/118/107 115/131/115
f 101/121/101 100/120/100 108/133/108 109/134/109
f 102/122/102 101/121/101 109/134/109 110/126/110
f 115/131/115 114/130/114 122/135/122 123/136/123
f 164/137/164 115/131/115 123/136/123
f 109/134/109 108/133/108 116/138/116 117/139/117
f 110/126/110 109/134/109 117/139/117 118/140/118
f 111/127/111 110/126/110 118/140/118 119/141/119
f 112/128/112 111/127/111 119/141/119 120/142/120
f 113/129/113 112/128/112 120/142/120 121/143/121
f 114/130/114 113/129/113 121/143/121 122/135/122
f 120/142/120 119/141/119 127/144/127 128/145/128
f 121/143/121 120/142/120 128/145/128 129/146/129
f 122/135/122 121/143/121 129/146/129 130/147/130
f 123/136/123 122/135/122 130/147/130 131/148/131
f 164/149/164 123/136/123 131/148/131
f 117/139/117 116/138/116 124/150/124 125/151/125
f 118/140/118 117/139/117 125/151/125 126/152/126
f 119/141/119 118/140/118 126/152/126 127/144/127
f 164/153/164 131/148/131 139/154/139
f 125/151/125 124/150/124 132/155/132 133/156/133
f 126/152/126 125/151/125 133/156/133 134/157/134
f 127/144/127 126/152/126 134/157/134 135/158/135
f 128/145/128 127/144/127 135/158/135 136/159/136
f 129/146/129 128/145/128 136/159/136 137/160/137
f 130/147/130 129/146/129 137/160/137 138/161/138
f 131/148/131 130/147/130 138/161/138 139/154/139
f 137/160/137 136/159/136 144/162/144 145/163/145
f 138/161/138 137/160/137 145/163/145 146/164/146
f 139/154/139 138/161/138 146/164/146 147/165/147
f 164/166/164 139/154/139 147/165/147
f 133/156/133 132/155/132 140/167/140 141/168/141
f 134/157/134 133/156/133 141/168/141 142/169/142
f 135/158/135 134/157/134 142/169/142 143/170/143
f 136/159/136 135/158/135 143/170/143 144/162/144
f 141/168/141 140/167/140 148/171/148 149/172/149
f 142/169/142 141/168/141 149/172/149 150/173/150
f 143/170/143 142/169/142 150/173/150 151/174/151
f 144/162/144 143/170/143 151/174/151 152/175/152
f 145/163/145 144/162/144 152/175/152 153/176/153
f 146/164/146 145/163/145 153/176/153 154/177/154
f 147/165/147 146/164/146 154/177/154 155/178/155
f 164/179/164 147/165/147 155/178/155
f 153/176/153 152/175/152 160/180/160 161/181/161
f 154/177/154 153/176/153 161/181/161 162/182/162
f 155/178/155 154/177/154 162/182/162 163/183/163
f 164/184/164 155/178/155 163/183/163
f 149/172/149 148/171/148 156/185/156 157/186/157
f 150/173/150 149/172/149 157/186/157 158/187/158
f 151/174/151 150/173/150 158/187/158 159/188/159
f 152/175/152 151/174/151 159/188/159 160/180/160
f 158/187/158 157/186/157 166/189/166 167/190/167
f 159/188/159 158/187/158 167/190/167 168/191/168
f 160/180/160 159/188/159 168/191/168 169/192/169
f 161/181/161 160/180/160 169/192/169 170/193/170
f 162/182/162 161/181/161 170/193/170 171/194/171
f 163/183/163 162/182/162 171/194/171 172/195/172
f 164/196/164 163/183/163 172/195/172
f 157/186/157 156/185/156 165/197/165 166/189/166
f 171/194/171 170/193/170 178/198/178 179/199/179
f 172/195/172 171/194/171 179/199/179 180/200/180
f 164/201/164 172/195/172 180/200/180
f 166/189/166 165/197/165 173/202/173 174/203/174
f 167/190/167 166/189/166 174/203/174 175/204/175
f 168/191/168 167/190/167 175/204/175 176/205/176
f 169/192/169 168/191/168 176/205/176 177/206/177
f 170/193/170 169/192/169 177/206/177 178/198/178
f 175/204/175 174/203/174 182/207/182 183/208/183
f 176/205/176 175/204/175 183/208/183 184/209/184
f 177/206/177 176/205/176 184/209/184 185/210/185
f 178/198/178 177/206/177 185/210/185 186/211/186
f 179/199/179 178/198/178 186/211/186 187/212/187
f 180/200/180 179/199/179 187/212/187 188/213/188
f 164/214/164 180/200/180 188/213/188
f 174/203/174 173/202/173 181/215/181 182/207/182
f 187/212/187 186/211/186 194/216/194 195/217/195
f 188/213/188 187/212/187 195/217/195 196/218/196
f 164/219/164 188/213/188 196/218/196
f 182/207/182 181/215/181 189/220/189 190/221/190
f 183/208/183 182/207/182 190/221/190 191/222/191
f 184/209/184 183/208/183 191/222/191 192/223/192
f 185/210/185 184/209/184 192/223/192 193/224/193
f 186/211/186 185/210/185 193/224/193 194/216/194
f 192/225/192 191/226/191 199/227/199 200/228/200
f 193/229/193 192/225/192 200/228/200 201/230/201
f 194/231/194 193/229/193 201/230/201 202/232/202
f 195/233/195 194/231/194 202/232/202 203/234/203
f 196/235/196 195/233/195 203/234/203 204/236/204
f 164/237/164 196/235/196 204/236/204
f 190/238/190 189/239/189 197/240/197 198/241/198
f 191/226/191 190/238/190 198/241/198 199/227/199
f 204/236/204 203/234/203 211/242/211 212/243/212
f 164/244/164 204/236/204 212/243/212
f 198/241/198 197/240/197 205/245/205 206/246/206
f 199/227/199 198/241/198 206/246/206 207/247/207
f 200/228/200 199/227/199 207/247/207 208/248/208
f 201/230/201 200/228/200 208/248/208 209/249/209
f 202/232/202 201/230/201 209/249/209 210/250/210
f 203/234/203 202/232/202 210/250/210 211/242/211
f 209/249/209 208/248/208 216/251/216 217/252/217
f 210/250/210 209/249/209 217/252/217 218/253/218
f 211/242/211 210/250/210 218/253/218 219/254/219
f 212/243/212 211/242/211 219/254/219 220/255/220
f 164/256/164 212/243/212 220/255/220
f 206/246/206 205/245/205 213/257/213 214/258/214
f 207/247/207 206/246/206 214/258/214 215/259/215
f 208/248/208 207/247/207 215/259/215 216/251/216
f 164/260/164 220/255/220 228/261/228
f 214/258/214 213/257/213 221/262/221 222/263/222
f 215/259/215 214/258/214 222/263/222 223/264/223
f 216/251/216 215/259/215 223/264/223 224/265/224
f 217/252/217 216/251/216 224/265/224 225/266/225
f 218/253/218 217/252/217 225/266/225 226/267/226
f 219/254/219 218/253/218 226/267/226 227/268/227
f 220/255/220 219/254/219 227/268/227 228/261/228
f 225/266/225 224/265/224 232/269/232 233/270/233
f 226/267/226 225/266/225 233/270/233 234/271/234
f 227/268/227 226/267/226 234/271/234 235/272/235
f 228/261/228 227/268/227 235/272/235 236/273/236
f 164/274/164 228/261/228 236/273/236
f 222/263/222 221/262/221 229/275/229 230/276/230
f 223/264/223 222/263/222 230/276/230 231/277/231
f 224/265/224 223/264/223 231/277/231 232/269/232
f 164/278/164 236/273/236 244/279/244
f 230/276/230 229/275/229 237/280/237 238/281/238
f 231/277/231 230/276/230 238/281/238 239/282/239
f 232/269/232 231/277/231 239/282/239 240/283/240
f 233/270/233 232/269/232 240/283/240 241/284/241
f 234/271/234 233/270/233 241/284/241 242/285/242
f 235/272/235 234/271/234 242/285/242 243/286/243
f 236/273/236 235/272/235 243/286/243 244/279/244
f 242/285/242 241/284/241 249/287/249 250/288/250
f 243/286/243 242/285/242 250/288/250 251/289/251
f 244/279/244 243/286/243 251/289/251 252/290/252
f 164/291/164 244/279/244 252/290/252
f 238/281/238 237/280/237 245/292/245 246/293/246
f 239/282/239 238/281/238 246/293/246 247/294/247
f 240/283/240 239/282/239 247/294/247 248/295/248
f 241/284/241 240/283/240 248/295/248 249/287/249
f 246/293/246 245/292/245 1/5/1 2/4/2
f 247/294/247 246/293/246 2/4/2 253/8/253
f 248/295/248 247/294/247 253/8/253 3/10/3
f 249/287/249 248/295/248 3/10/3 254/12/254
f 250/288/250 249/287/249 254/12/254 255/14/255
f 251/289/251 250/288/250 255/14/255 256/16/256
f 252/290/252 251/289/251 256/16/256 257/2/257
f 164/296/164 252/290/252 257/2/257
